<?xml version="1.0" encoding="UTF-8" standalone="no"?>
<!-- Created with Inkscape (http://www.inkscape.org/) -->

<svg
   version="1.1"
   id="svg1"
   width="108"
   height="90.666664"
   viewBox="0 0 108 90.666664"
   xmlns="http://www.w3.org/2000/svg"
   xmlns:svg="http://www.w3.org/2000/svg">
  <defs
     id="defs1" />
  <g
     id="g1">
    <path
       style="fill:#0088aa;fill-opacity:1"
       d="m 9.2401286,86.569891 c -3.004687,-2.363487 -3.513145,-3.784764 -3.513145,-9.820188 0,-9.960615 3.557415,-14.37362 11.1397614,-13.818977 3.984398,0.291455 5.626093,1.046786 5.946502,2.735939 0.350646,1.848559 -0.491857,2.333333 -4.055164,2.333333 -2.473771,0 -5.217766,0.72 -6.097766,1.6 -2.069954,2.069955 -2.069954,10.730045 0,12.8 2.577195,2.577195 6.4,1.94006 6.4,-1.066667 0,-1.536716 -0.888889,-2.666667 -2.097765,-2.666667 -4.227186,0 -1.384018,-4.650206 3.108685,-5.084477 l 4.322414,-0.417812 v 7.27516 c 0,5.404006 -0.542443,7.483314 -2.10905,8.084477 -4.130552,1.585042 -9.58368,0.768138 -13.0444724,-1.954121 z M 27.060315,80.666664 c 0,-7.777777 0.27351,-8.666666 2.66667,-8.666666 2.39316,0 2.66667,0.888889 2.66667,8.666666 0,7.777778 -0.27351,8.666667 -2.66667,8.666667 -2.39316,0 -2.66667,-0.888889 -2.66667,-8.666667 z m 11.42857,6.571429 c -1.15238,-1.152381 -2.09523,-4.152381 -2.09523,-6.666667 0,-2.514285 -0.6,-4.571428 -1.33334,-4.571428 -0.73333,0 -1.33333,-0.9 -1.33333,-2 0,-1.1 0.6,-2 1.33333,-2 0.73334,0 1.33334,-1.2 1.33334,-2.666667 0,-1.955555 0.88889,-2.666666 3.33333,-2.666666 2.44444,0 3.33333,0.711111 3.33333,2.666666 0,1.481482 0.88889,2.666667 2,2.666667 1.1,0 2,0.9 2,2 0,1.1 -0.9,2 -2,2 -2.76032,0 -2.60498,6.596978 0.2037,8.650738 1.21204,0.886261 1.77663,2.302407 1.25465,3.14699 -1.35414,2.191033 -5.57315,1.89699 -8.02978,-0.559633 z m 9.90477,-10.571428 c 0,-11.777778 0.18713,-12.666667 2.66666,-12.666667 2.15873,0 2.66667,0.888889 2.66667,4.666667 0,4.088889 0.4127,4.666666 3.33333,4.666666 2.92064,0 3.33334,-0.577777 3.33334,-4.666666 0,-4.088889 0.41269,-4.666667 3.33333,-4.666667 3.32334,0 3.33333,0.03826 3.33333,12.759401 0,12.469325 -0.0682,12.749715 -3,12.333333 -2.50214,-0.35536 -3,-1.255981 -3,-5.426942 0,-4.566822 -0.31825,-5.000798 -3.66666,-5 -3.38875,8.08e-4 -3.66667,0.405127 -3.66667,5.334208 0,4.444444 -0.44444,5.333333 -2.66667,5.333333 -2.47953,0 -2.66666,-0.888889 -2.66666,-12.666666 z m 21.36699,10.062897 c -0.75185,-1.40484 -1.36699,-5.293699 -1.36699,-8.641909 0,-5.60461 0.26449,-6.087655 3.33333,-6.087655 3.1184,0 3.33333,0.437037 3.33333,6.777778 0,8.810522 3.15937,8.346999 3.73972,-0.548671 0.3355,-5.142454 0.85884,-6.229107 3,-6.229107 2.2978,0 2.59362,0.968625 2.59362,8.49247 v 8.49247 l -6.63301,0.149438 c -5.26623,0.118646 -6.91468,-0.37688 -8,-2.404814 z m 17.29967,-10.231995 c 0,-11.60868 0.18967,-12.497569 2.66667,-12.497569 2.04535,0 2.66667,0.888889 2.66667,3.815104 0,3.28192 0.43644,3.731673 3.12288,3.218126 4.627265,-0.884556 7.543775,2.813551 7.543775,9.565415 0,7.112448 -1.79541,8.68161 -9.750665,8.521931 l -6.24933,-0.125438 z m 10.66667,3.423741 c 0,-3.032421 -0.60448,-3.92131 -2.66667,-3.92131 -2.05714,0 -2.66666,0.888889 -2.66666,3.888889 0,3.645317 2.06678,5.800732 4.33333,4.519161 0.55,-0.310986 1,-2.330019 1,-4.48674 z M 27.508095,68.577041 c -1.21334,-3.161924 1.63042,-5.391952 4.17882,-3.276962 1.57923,1.310643 1.71259,2.154608 0.55992,3.543491 -1.99664,2.405804 -3.75114,2.307123 -4.73874,-0.266529 z m 13.15287,-10.805916 c -2.41965,-1.192484 -6.47204,-4.58961 -9.00531,-7.54917 -10.445448,-12.203157 -9.495932,-29.351399 2.24185,-40.4877133 12.20285,-11.57756 29.0967,-11.285344 41.04067,0.7098863 11.55808,11.607685 12.53967,27.30483 2.47127,39.519548 -3.41932,4.14823 -13.91723,11.013411 -14.97959,9.796004 -0.20462,-0.234492 -0.63907,-3.794655 -0.96543,-7.911475 l -0.59339,-7.485127 4.5506,-1.645518 c 6.15337,-2.22509 9.19844,-9.145542 7.1024,-16.141486 -0.80504,-2.687003 -1.46372,-6.365848 -1.46372,-8.175212 0,-4.459995 -0.98774,-5.13802 -5.13709,-3.526296 -4.55247,1.768302 -18.50668,1.768302 -23.05914,0 -4.23159,-1.643667 -5.1371,-0.947128 -5.1371,3.951585 0,2.043272 -0.6955,5.241503 -1.54556,7.107179 -2.61681,5.743275 0.57944,13.674253 6.61554,16.415406 2.71151,1.231367 5.09414,2.320765 5.29474,2.420885 0.20059,0.10012 -0.0136,1.167913 -0.47599,2.372874 -1.2493,3.255634 -6.33995,2.652277 -9.63947,-1.142496 -4.41643,-5.079351 -6.20671,-3.973664 -2.15886,1.333333 3.30054,4.327235 5.29858,5.321676 9.57627,4.766194 1.0157,-0.131894 1.66666,1.368726 1.66666,3.842023 0,4.659167 -0.41635,4.778203 -6.39935,1.829576 z"
       id="path1" />
  </g>
</svg>
